Coordinates
version=1
nRows=8
nColumns=33
inDegrees=yes

Units are S.I. units (second, meters, Newtons, ...)
Angles are in degrees.

endheader
time	ground_thorax_rot_x	ground_thorax_rot_y	ground_thorax_rot_z	ground_thorax_tx	ground_thorax_ty	ground_thorax_tz	clav_prot_r	clav_elev_r	scapula_abduction_r	scapula_elevation_r	scapula_upward_rot_r	scapula_winging_r	shoulder_elv_r	plane_of_elev_r	axial_rot_r	elbow_flexion_r	pro_sup_r	wrist_flex_r	wrist_dev_r	clav_prot_l	clav_elev_l	scapula_abduction_l	scapula_elevation_l	scapula_upward_rot_l	scapula_winging_l	shoulder_elv_l	plane_of_elev_l	axial_rot_l	elbow_flexion_l	pro_sup_l	wrist_flex_l	wrist_dev_l
      3.04000000	     31.77636455	     25.71867306	     35.04999209	    -87.57014695	    848.93365929	    -50.57396866	     13.13304359	     34.24101262	     27.38349897	     45.00000000	    -45.00000000	  -5130.38477426	  -1725.79246342	     21.57948854	   -158.70702424	   1799.98026925	   -199.80511592	     14.90044880	     13.76761767	     -6.46606680	    -45.00000000	    -40.26889316	     45.00000000	    -45.00000000	  -3853.55133859	  -1887.59046107	    135.79950643	   -134.91344751	    349.76760857	   -318.62109469	     13.33539236	    -19.49572011
      3.05000000	     31.84726618	     25.62865913	     34.84276951	    -88.89508835	    850.78241407	    -50.87059139	     13.07263131	     34.20767270	     27.36680165	     45.00000000	    -45.00000000	  -5130.45188442	  -1725.80292020	     21.58615258	   -158.80835123	   1799.89197187	   -199.99364525	     14.99169212	     13.81528267	     -6.30509355	    -45.00000000	    -40.36662244	     45.00000000	    -45.00000000	  -3853.43866923	  -1887.52309768	    135.74867771	   -134.74223541	    349.73887355	   -318.74690128	     13.39379498	    -19.60333267
      3.06000000	     31.95092145	     25.49043699	     34.63302371	    -90.13331451	    852.51263319	    -51.14546915	     12.97768846	     34.22995951	     27.44597967	     45.00000000	    -45.00000000	  -5130.54558212	  -1725.84908560	     21.59564231	   -158.89253214	   1799.83046296	   -200.09282903	     15.10368004	     13.86887893	     -6.15071397	    -45.00000000	    -40.41911243	     45.00000000	    -45.00000000	  -3853.24729595	  -1887.48578103	    135.65383670	   -134.51496421	    349.76123181	   -318.85442430	     13.47405823	    -19.77125152
      3.07000000	     32.01942752	     25.43354043	     34.42050579	    -91.28482381	    854.11818973	    -51.39498218	     12.91385511	     34.15344389	     27.35246675	     45.00000000	    -45.00000000	  -5130.56180485	  -1725.82409343	     21.58336596	   -158.94436657	   1799.70023245	   -200.11180222	     15.20875351	     13.93420795	     -5.98223347	    -45.00000000	    -40.54086204	     45.00000000	    -45.00000000	  -3853.14628426	  -1887.48067490	    135.61024251	   -134.32445719	    349.75439742	   -318.93259649	     13.51275720	    -19.86245748
      3.08000000	     32.04572988	     25.39514419	     34.28945299	    -92.34541279	    855.58878141	    -51.61532891	     12.85940632	     34.11632740	     27.27092699	     45.00000000	    -45.00000000	  -5130.60960088	  -1725.82562656	     21.58285320	   -158.96391386	   1799.60536361	   -200.06822367	     15.31773283	     13.97149972	     -5.86515702	    -45.00000000	    -40.62151390	     45.00000000	    -45.00000000	  -3853.07716504	  -1887.43760975	    135.59368766	   -134.18042025	    349.71043589	   -318.98092582	     13.54999692	    -19.94727667
      3.09000000	     32.12437198	     25.28916788	     34.06964783	    -93.31794320	    856.92022651	    -51.80367853	     12.79501549	     34.10076342	     27.25460971	     45.00000000	    -45.00000000	  -5130.63621700	  -1725.82963952	     21.59105929	   -158.96375235	   1799.52472236	   -199.96447561	     15.42426590	     14.02620602	     -5.78534345	    -45.00000000	    -40.67739997	     45.00000000	    -45.00000000	  -3852.97346952	  -1887.46307320	    135.51537270	   -134.01591472	    349.72973569	   -319.01421779	     13.61080562	    -20.09743984
      3.10000000	     32.24817471	     25.16247928	     33.76132952	    -94.20623150	    858.10847693	    -51.95696659	     12.76084323	     34.05655630	     27.09739521	     45.00000000	    -45.00000000	  -5130.64350630	  -1725.77240547	     21.68197259	   -158.88651983	   1799.39031287	   -199.79760264	     15.52269104	     14.10636459	     -5.72114335	    -45.00000000	    -40.73664275	     45.00000000	    -45.00000000	  -3852.95414166	  -1887.50849040	    135.41766913	   -133.88133607	    349.68415152	   -319.01576979	     13.64979348	    -20.19779395
      3.11000000	     32.16712759	     25.23650785	     33.83307203	    -95.02058355	    859.15536401	    -52.07234169	     12.71551408	     34.01523855	     27.11559839	     45.00000000	    -45.00000000	  -5130.70120633	  -1725.85201020	     21.53348908	   -158.99390549	   1799.31242900	   -199.61980922	     15.65951104	     14.03820832	     -5.68248995	    -45.00000000	    -40.74934757	     45.00000000	    -45.00000000	  -3852.91374618	  -1887.43136710	    135.45091927	   -133.80668085	    349.54976199	   -318.98135973	     13.69158078	    -20.25498127
